<mxfile host="Electron" modified="2023-12-20T15:17:08.080Z" agent="Mozilla/5.0 (Macintosh; Intel Mac OS X 10_15_7) AppleWebKit/537.36 (KHTML, like Gecko) draw.io/22.1.2 Chrome/114.0.5735.289 Electron/25.9.4 Safari/537.36" etag="0-x9HepSy5A67ZqClf59" version="22.1.2" type="device">
  <diagram id="2xOe5xubepqIjJ3LcJC1" name="Page-1">
    <mxGraphModel dx="405" dy="-497" grid="1" gridSize="10" guides="1" tooltips="1" connect="1" arrows="1" fold="1" page="1" pageScale="1" pageWidth="827" pageHeight="1169" math="0" shadow="0">
      <root>
        <mxCell id="0" />
        <mxCell id="1" parent="0" />
        <mxCell id="6d00vNp0HRFiDjTd-FTX-47" value="" style="rounded=0;whiteSpace=wrap;html=1;fillColor=none;dashed=1;" parent="1" vertex="1">
          <mxGeometry x="1760.4300000000003" y="1246" width="282" height="476" as="geometry" />
        </mxCell>
        <mxCell id="6d00vNp0HRFiDjTd-FTX-48" value="" style="rounded=0;whiteSpace=wrap;html=1;fillColor=none;dashed=1;" parent="1" vertex="1">
          <mxGeometry x="949" y="1265" width="230" height="450" as="geometry" />
        </mxCell>
        <mxCell id="6d00vNp0HRFiDjTd-FTX-49" value="&lt;div style=&quot;&quot;&gt;&lt;span style=&quot;caret-color: rgb(0, 0, 0); font-family: sans-serif; font-size: 13.12px; font-weight: 700; background-color: rgb(255, 255, 255);&quot;&gt;&amp;lt;&amp;lt;Cube&amp;gt;&amp;gt;&lt;/span&gt;&lt;span style=&quot;background-color: initial;&quot;&gt;&lt;b&gt;&lt;br&gt;&lt;/b&gt;&lt;/span&gt;&lt;/div&gt;&lt;div style=&quot;&quot;&gt;&lt;span style=&quot;caret-color: rgb(0, 0, 0); font-family: sans-serif; font-size: 13.12px; font-weight: 700; background-color: rgb(255, 255, 255);&quot;&gt;ProductContribution&lt;/span&gt;&lt;/div&gt;" style="rounded=0;whiteSpace=wrap;html=1;snapToPoint=1;points=[[0.1,0],[0.2,0],[0.3,0],[0.4,0],[0.5,0],[0.6,0],[0.7,0],[0.8,0],[0.9,0],[0,0.1],[0,0.3],[0,0.5],[0,0.7],[0,0.9],[0.1,1],[0.2,1],[0.3,1],[0.4,1],[0.5,1],[0.6,1],[0.7,1],[0.8,1],[0.9,1],[1,0.1],[1,0.3],[1,0.5],[1,0.7],[1,0.9]];fontFamily=Helvetica;fontSize=14;fillColor=none;align=center;" parent="1" vertex="1">
          <mxGeometry x="1356.29" y="1623.5" width="218.28" height="42" as="geometry" />
        </mxCell>
        <mxCell id="6d00vNp0HRFiDjTd-FTX-50" value="&lt;span style=&quot;border-color: var(--border-color);&quot;&gt;+ ProductCount : int&lt;br style=&quot;border-color: var(--border-color);&quot;&gt;+ VersionCount : int&lt;br style=&quot;border-color: var(--border-color);&quot;&gt;&lt;/span&gt;" style="rounded=0;whiteSpace=wrap;html=1;snapToPoint=1;points=[[0.1,0],[0.2,0],[0.3,0],[0.4,0],[0.5,0],[0.6,0],[0.7,0],[0.8,0],[0.9,0],[0,0.1],[0,0.3],[0,0.5],[0,0.7],[0,0.9],[0.1,1],[0.2,1],[0.3,1],[0.4,1],[0.5,1],[0.6,1],[0.7,1],[0.8,1],[0.9,1],[1,0.1],[1,0.3],[1,0.5],[1,0.7],[1,0.9]];fontFamily=Helvetica;fontSize=14;fillColor=none;" parent="1" vertex="1">
          <mxGeometry x="1356.29" y="1665.5" width="218.28" height="49.5" as="geometry" />
        </mxCell>
        <mxCell id="6d00vNp0HRFiDjTd-FTX-51" value="&lt;div style=&quot;&quot;&gt;&lt;span style=&quot;caret-color: rgb(0, 0, 0); font-family: sans-serif; font-size: 13.12px; background-color: rgb(255, 255, 255);&quot;&gt;&lt;b&gt;&amp;lt;&amp;lt;Level&amp;gt;&amp;gt;&lt;/b&gt;&lt;/span&gt;&lt;/div&gt;&lt;b&gt;MonthModification&lt;/b&gt;" style="rounded=0;whiteSpace=wrap;html=1;snapToPoint=1;points=[[0.1,0],[0.2,0],[0.3,0],[0.4,0],[0.5,0],[0.6,0],[0.7,0],[0.8,0],[0.9,0],[0,0.1],[0,0.3],[0,0.5],[0,0.7],[0,0.9],[0.1,1],[0.2,1],[0.3,1],[0.4,1],[0.5,1],[0.6,1],[0.7,1],[0.8,1],[0.9,1],[1,0.1],[1,0.3],[1,0.5],[1,0.7],[1,0.9]];fontFamily=Helvetica;fontSize=14;fillColor=none;align=center;" parent="1" vertex="1">
          <mxGeometry x="959" y="1623.5" width="210" height="42" as="geometry" />
        </mxCell>
        <mxCell id="6d00vNp0HRFiDjTd-FTX-52" value="&lt;span style=&quot;border-color: var(--border-color);&quot;&gt;+ date_modification&amp;nbsp;: datetime&lt;br style=&quot;border-color: var(--border-color);&quot;&gt;&lt;/span&gt;" style="rounded=0;whiteSpace=wrap;html=1;snapToPoint=1;points=[[0.1,0],[0.2,0],[0.3,0],[0.4,0],[0.5,0],[0.6,0],[0.7,0],[0.8,0],[0.9,0],[0,0.1],[0,0.3],[0,0.5],[0,0.7],[0,0.9],[0.1,1],[0.2,1],[0.3,1],[0.4,1],[0.5,1],[0.6,1],[0.7,1],[0.8,1],[0.9,1],[1,0.1],[1,0.3],[1,0.5],[1,0.7],[1,0.9]];fontFamily=Helvetica;fontSize=14;fillColor=none;" parent="1" vertex="1">
          <mxGeometry x="959" y="1665.5" width="210" height="38" as="geometry" />
        </mxCell>
        <mxCell id="6d00vNp0HRFiDjTd-FTX-53" value="&lt;div style=&quot;&quot;&gt;&lt;b&gt;&lt;span style=&quot;caret-color: rgb(0, 0, 0); font-family: sans-serif; font-size: 13.12px; background-color: rgb(255, 255, 255);&quot;&gt;&amp;lt;&amp;lt;Level&amp;gt;&amp;gt;&lt;/span&gt;&lt;span style=&quot;background-color: initial;&quot;&gt;&lt;br&gt;&lt;/span&gt;&lt;/b&gt;&lt;/div&gt;&lt;div style=&quot;&quot;&gt;&lt;b&gt;ProductVersion&lt;/b&gt;&lt;br&gt;&lt;/div&gt;" style="rounded=0;whiteSpace=wrap;html=1;snapToPoint=1;points=[[0.1,0],[0.2,0],[0.3,0],[0.4,0],[0.5,0],[0.6,0],[0.7,0],[0.8,0],[0.9,0],[0,0.1],[0,0.3],[0,0.5],[0,0.7],[0,0.9],[0.1,1],[0.2,1],[0.3,1],[0.4,1],[0.5,1],[0.6,1],[0.7,1],[0.8,1],[0.9,1],[1,0.1],[1,0.3],[1,0.5],[1,0.7],[1,0.9]];fontFamily=Helvetica;fontSize=14;fillColor=none;align=center;" parent="1" vertex="1">
          <mxGeometry x="1792.15" y="1623.5" width="218.28" height="42" as="geometry" />
        </mxCell>
        <mxCell id="6d00vNp0HRFiDjTd-FTX-54" value="+ version_id : int" style="rounded=0;whiteSpace=wrap;html=1;snapToPoint=1;points=[[0.1,0],[0.2,0],[0.3,0],[0.4,0],[0.5,0],[0.6,0],[0.7,0],[0.8,0],[0.9,0],[0,0.1],[0,0.3],[0,0.5],[0,0.7],[0,0.9],[0.1,1],[0.2,1],[0.3,1],[0.4,1],[0.5,1],[0.6,1],[0.7,1],[0.8,1],[0.9,1],[1,0.1],[1,0.3],[1,0.5],[1,0.7],[1,0.9]];fontFamily=Helvetica;fontSize=14;fillColor=none;" parent="1" vertex="1">
          <mxGeometry x="1792.15" y="1665.5" width="218.28" height="48" as="geometry" />
        </mxCell>
        <mxCell id="6d00vNp0HRFiDjTd-FTX-55" value="" style="endArrow=none;html=1;rounded=0;exitX=1;exitY=0.5;exitDx=0;exitDy=0;entryX=0;entryY=0.5;entryDx=0;entryDy=0;fontStyle=1" parent="1" source="6d00vNp0HRFiDjTd-FTX-49" target="6d00vNp0HRFiDjTd-FTX-53" edge="1">
          <mxGeometry width="50" height="50" relative="1" as="geometry">
            <mxPoint x="1328.29" y="1763.63" as="sourcePoint" />
            <mxPoint x="1621.29" y="1763.63" as="targetPoint" />
          </mxGeometry>
        </mxCell>
        <mxCell id="6d00vNp0HRFiDjTd-FTX-56" value="" style="endArrow=none;html=1;rounded=0;exitX=1;exitY=0.5;exitDx=0;exitDy=0;entryX=0;entryY=0.5;entryDx=0;entryDy=0;" parent="1" source="6d00vNp0HRFiDjTd-FTX-51" target="6d00vNp0HRFiDjTd-FTX-49" edge="1">
          <mxGeometry width="50" height="50" relative="1" as="geometry">
            <mxPoint x="1338.29" y="1830.5" as="sourcePoint" />
            <mxPoint x="1406.29" y="1823.5" as="targetPoint" />
          </mxGeometry>
        </mxCell>
        <mxCell id="6d00vNp0HRFiDjTd-FTX-57" value="&lt;font style=&quot;font-size: 14px;&quot;&gt;1..1&lt;/font&gt;" style="text;html=1;align=center;verticalAlign=middle;resizable=0;points=[];autosize=1;strokeColor=none;fillColor=none;" parent="1" vertex="1">
          <mxGeometry x="1718.1499999999996" y="1617.5" width="50" height="30" as="geometry" />
        </mxCell>
        <mxCell id="6d00vNp0HRFiDjTd-FTX-58" value="&lt;font style=&quot;font-size: 14px;&quot;&gt;0..*&lt;/font&gt;" style="text;html=1;align=center;verticalAlign=middle;resizable=0;points=[];autosize=1;strokeColor=none;fillColor=none;" parent="1" vertex="1">
          <mxGeometry x="1574.5700000000002" y="1618.5" width="40" height="30" as="geometry" />
        </mxCell>
        <mxCell id="6d00vNp0HRFiDjTd-FTX-59" value="&lt;font style=&quot;font-size: 14px;&quot;&gt;0..*&lt;/font&gt;" style="text;html=1;align=center;verticalAlign=middle;resizable=0;points=[];autosize=1;strokeColor=none;fillColor=none;" parent="1" vertex="1">
          <mxGeometry x="1321.43" y="1619.5" width="40" height="30" as="geometry" />
        </mxCell>
        <mxCell id="6d00vNp0HRFiDjTd-FTX-60" value="&lt;font style=&quot;font-size: 14px;&quot;&gt;1..1&lt;/font&gt;" style="text;html=1;align=center;verticalAlign=middle;resizable=0;points=[];autosize=1;strokeColor=none;fillColor=none;" parent="1" vertex="1">
          <mxGeometry x="1176.5700000000002" y="1618.5" width="50" height="30" as="geometry" />
        </mxCell>
        <mxCell id="6d00vNp0HRFiDjTd-FTX-61" value="&lt;div style=&quot;&quot;&gt;&lt;span style=&quot;caret-color: rgb(0, 0, 0); font-family: sans-serif; font-size: 13.12px; font-weight: 700; background-color: rgb(255, 255, 255);&quot;&gt;&amp;lt;&amp;lt;Level&amp;gt;&amp;gt;&lt;/span&gt;&lt;span style=&quot;background-color: initial;&quot;&gt;&lt;b&gt;&lt;br&gt;&lt;/b&gt;&lt;/span&gt;&lt;/div&gt;&lt;div style=&quot;&quot;&gt;&lt;font face=&quot;sans-serif&quot;&gt;&lt;span style=&quot;font-size: 13.12px; background-color: rgb(255, 255, 255);&quot;&gt;&lt;b&gt;Pseudo&lt;/b&gt;&lt;/span&gt;&lt;/font&gt;&lt;/div&gt;" style="rounded=0;whiteSpace=wrap;html=1;snapToPoint=1;points=[[0.1,0],[0.2,0],[0.3,0],[0.4,0],[0.5,0],[0.6,0],[0.7,0],[0.8,0],[0.9,0],[0,0.1],[0,0.3],[0,0.5],[0,0.7],[0,0.9],[0.1,1],[0.2,1],[0.3,1],[0.4,1],[0.5,1],[0.6,1],[0.7,1],[0.8,1],[0.9,1],[1,0.1],[1,0.3],[1,0.5],[1,0.7],[1,0.9]];fontFamily=Helvetica;fontSize=14;fillColor=none;align=center;" parent="1" vertex="1">
          <mxGeometry x="1359.04" y="1419.5" width="212.78" height="42" as="geometry" />
        </mxCell>
        <mxCell id="6d00vNp0HRFiDjTd-FTX-62" value="&lt;span style=&quot;border-color: var(--border-color);&quot;&gt;+ pseudo : java.lang.String&lt;br style=&quot;border-color: var(--border-color);&quot;&gt;&lt;/span&gt;" style="rounded=0;whiteSpace=wrap;html=1;snapToPoint=1;points=[[0.1,0],[0.2,0],[0.3,0],[0.4,0],[0.5,0],[0.6,0],[0.7,0],[0.8,0],[0.9,0],[0,0.1],[0,0.3],[0,0.5],[0,0.7],[0,0.9],[0.1,1],[0.2,1],[0.3,1],[0.4,1],[0.5,1],[0.6,1],[0.7,1],[0.8,1],[0.9,1],[1,0.1],[1,0.3],[1,0.5],[1,0.7],[1,0.9]];fontFamily=Helvetica;fontSize=14;fillColor=none;" parent="1" vertex="1">
          <mxGeometry x="1359.04" y="1461.5" width="212.78" height="48" as="geometry" />
        </mxCell>
        <mxCell id="6d00vNp0HRFiDjTd-FTX-63" value="&lt;font style=&quot;font-size: 18px;&quot;&gt;CONTRIBUTOR DIMENSION&lt;/font&gt;" style="text;html=1;align=center;verticalAlign=middle;resizable=0;points=[];autosize=1;strokeColor=none;fillColor=none;" parent="1" vertex="1">
          <mxGeometry x="1335.43" y="1383.5" width="260" height="40" as="geometry" />
        </mxCell>
        <mxCell id="6d00vNp0HRFiDjTd-FTX-64" value="&lt;div style=&quot;&quot;&gt;&lt;b&gt;&lt;span style=&quot;caret-color: rgb(0, 0, 0); font-family: sans-serif; font-size: 13.12px; background-color: rgb(255, 255, 255);&quot;&gt;&amp;lt;&amp;lt;Level&amp;gt;&amp;gt;&lt;/span&gt;&lt;/b&gt;&lt;/div&gt;&lt;b style=&quot;border-color: var(--border-color);&quot;&gt;YearModification&lt;/b&gt;" style="rounded=0;whiteSpace=wrap;html=1;snapToPoint=1;points=[[0.1,0],[0.2,0],[0.3,0],[0.4,0],[0.5,0],[0.6,0],[0.7,0],[0.8,0],[0.9,0],[0,0.1],[0,0.3],[0,0.5],[0,0.7],[0,0.9],[0.1,1],[0.2,1],[0.3,1],[0.4,1],[0.5,1],[0.6,1],[0.7,1],[0.8,1],[0.9,1],[1,0.1],[1,0.3],[1,0.5],[1,0.7],[1,0.9]];fontFamily=Helvetica;fontSize=14;fillColor=none;align=center;" parent="1" vertex="1">
          <mxGeometry x="958.5700000000002" y="1448.5" width="210" height="42" as="geometry" />
        </mxCell>
        <mxCell id="6d00vNp0HRFiDjTd-FTX-65" value="&lt;span style=&quot;border-color: var(--border-color);&quot;&gt;&lt;span style=&quot;border-color: var(--border-color);&quot;&gt;+ date_modification&amp;nbsp;: datetime&lt;br style=&quot;border-color: var(--border-color);&quot;&gt;&lt;/span&gt;&lt;/span&gt;" style="rounded=0;whiteSpace=wrap;html=1;snapToPoint=1;points=[[0.1,0],[0.2,0],[0.3,0],[0.4,0],[0.5,0],[0.6,0],[0.7,0],[0.8,0],[0.9,0],[0,0.1],[0,0.3],[0,0.5],[0,0.7],[0,0.9],[0.1,1],[0.2,1],[0.3,1],[0.4,1],[0.5,1],[0.6,1],[0.7,1],[0.8,1],[0.9,1],[1,0.1],[1,0.3],[1,0.5],[1,0.7],[1,0.9]];fontFamily=Helvetica;fontSize=14;fillColor=none;" parent="1" vertex="1">
          <mxGeometry x="958.5700000000002" y="1490.5" width="210" height="44.5" as="geometry" />
        </mxCell>
        <mxCell id="6d00vNp0HRFiDjTd-FTX-66" value="" style="endArrow=none;html=1;rounded=0;entryX=0.5;entryY=0;entryDx=0;entryDy=0;exitX=0.5;exitY=1;exitDx=0;exitDy=0;" parent="1" source="6d00vNp0HRFiDjTd-FTX-65" target="6d00vNp0HRFiDjTd-FTX-51" edge="1">
          <mxGeometry width="50" height="50" relative="1" as="geometry">
            <mxPoint x="1104.43" y="1575" as="sourcePoint" />
            <mxPoint x="1084.43" y="1605" as="targetPoint" />
          </mxGeometry>
        </mxCell>
        <mxCell id="6d00vNp0HRFiDjTd-FTX-67" value="&lt;font style=&quot;font-size: 14px;&quot;&gt;0..*&lt;/font&gt;" style="text;html=1;align=center;verticalAlign=middle;resizable=0;points=[];autosize=1;strokeColor=none;fillColor=none;" parent="1" vertex="1">
          <mxGeometry x="1057.43" y="1531.5" width="40" height="30" as="geometry" />
        </mxCell>
        <mxCell id="6d00vNp0HRFiDjTd-FTX-68" value="&lt;font style=&quot;font-size: 14px;&quot;&gt;1..1&lt;/font&gt;" style="text;html=1;align=center;verticalAlign=middle;resizable=0;points=[];autosize=1;strokeColor=none;fillColor=none;" parent="1" vertex="1">
          <mxGeometry x="1055.43" y="1598.5" width="50" height="30" as="geometry" />
        </mxCell>
        <mxCell id="6d00vNp0HRFiDjTd-FTX-69" value="" style="endArrow=none;html=1;rounded=0;exitX=0.5;exitY=1;exitDx=0;exitDy=0;entryX=0.5;entryY=0;entryDx=0;entryDy=0;fontStyle=1" parent="1" source="6d00vNp0HRFiDjTd-FTX-62" target="6d00vNp0HRFiDjTd-FTX-49" edge="1">
          <mxGeometry width="50" height="50" relative="1" as="geometry">
            <mxPoint x="1702.15" y="1450.5" as="sourcePoint" />
            <mxPoint x="1909.15" y="1607.5" as="targetPoint" />
          </mxGeometry>
        </mxCell>
        <mxCell id="6d00vNp0HRFiDjTd-FTX-70" value="&lt;font style=&quot;font-size: 14px;&quot;&gt;1..1&lt;/font&gt;" style="text;html=1;align=center;verticalAlign=middle;resizable=0;points=[];autosize=1;strokeColor=none;fillColor=none;" parent="1" vertex="1">
          <mxGeometry x="1456.29" y="1509.5" width="50" height="30" as="geometry" />
        </mxCell>
        <mxCell id="6d00vNp0HRFiDjTd-FTX-71" value="&lt;font style=&quot;font-size: 14px;&quot;&gt;0..*&lt;/font&gt;" style="text;html=1;align=center;verticalAlign=middle;resizable=0;points=[];autosize=1;strokeColor=none;fillColor=none;" parent="1" vertex="1">
          <mxGeometry x="1461.29" y="1598.5" width="40" height="30" as="geometry" />
        </mxCell>
        <mxCell id="6d00vNp0HRFiDjTd-FTX-72" value="&lt;div style=&quot;&quot;&gt;&lt;b&gt;&lt;span style=&quot;caret-color: rgb(0, 0, 0); font-family: sans-serif; font-size: 13.12px; background-color: rgb(255, 255, 255);&quot;&gt;&amp;lt;&amp;lt;Level&amp;gt;&amp;gt;&lt;/span&gt;&lt;span style=&quot;background-color: initial;&quot;&gt;&lt;br&gt;&lt;/span&gt;&lt;/b&gt;&lt;/div&gt;&lt;div style=&quot;&quot;&gt;&lt;b style=&quot;border-color: var(--border-color);&quot;&gt;YearCreation&lt;/b&gt;&lt;br&gt;&lt;/div&gt;" style="rounded=0;whiteSpace=wrap;html=1;snapToPoint=1;points=[[0.1,0],[0.2,0],[0.3,0],[0.4,0],[0.5,0],[0.6,0],[0.7,0],[0.8,0],[0.9,0],[0,0.1],[0,0.3],[0,0.5],[0,0.7],[0,0.9],[0.1,1],[0.2,1],[0.3,1],[0.4,1],[0.5,1],[0.6,1],[0.7,1],[0.8,1],[0.9,1],[1,0.1],[1,0.3],[1,0.5],[1,0.7],[1,0.9]];fontFamily=Helvetica;fontSize=14;fillColor=none;align=center;" parent="1" vertex="1">
          <mxGeometry x="958.4300000000001" y="1277" width="210" height="42" as="geometry" />
        </mxCell>
        <mxCell id="6d00vNp0HRFiDjTd-FTX-73" value="&lt;span style=&quot;border-color: var(--border-color);&quot;&gt;&lt;span style=&quot;border-color: var(--border-color);&quot;&gt;+ date_creation&amp;nbsp;: datetime&lt;br style=&quot;border-color: var(--border-color);&quot;&gt;&lt;/span&gt;&lt;/span&gt;" style="rounded=0;whiteSpace=wrap;html=1;snapToPoint=1;points=[[0.1,0],[0.2,0],[0.3,0],[0.4,0],[0.5,0],[0.6,0],[0.7,0],[0.8,0],[0.9,0],[0,0.1],[0,0.3],[0,0.5],[0,0.7],[0,0.9],[0.1,1],[0.2,1],[0.3,1],[0.4,1],[0.5,1],[0.6,1],[0.7,1],[0.8,1],[0.9,1],[1,0.1],[1,0.3],[1,0.5],[1,0.7],[1,0.9]];fontFamily=Helvetica;fontSize=14;fillColor=none;" parent="1" vertex="1">
          <mxGeometry x="958.4300000000001" y="1319" width="210" height="48" as="geometry" />
        </mxCell>
        <mxCell id="6d00vNp0HRFiDjTd-FTX-74" value="&lt;font style=&quot;font-size: 18px;&quot;&gt;TIME DIMENSION&lt;/font&gt;" style="text;html=1;align=center;verticalAlign=middle;resizable=0;points=[];autosize=1;strokeColor=none;fillColor=none;" parent="1" vertex="1">
          <mxGeometry x="979" y="1230" width="170" height="40" as="geometry" />
        </mxCell>
        <mxCell id="6d00vNp0HRFiDjTd-FTX-75" value="" style="endArrow=none;html=1;rounded=0;entryX=0.5;entryY=0;entryDx=0;entryDy=0;exitX=0.5;exitY=1;exitDx=0;exitDy=0;" parent="1" source="6d00vNp0HRFiDjTd-FTX-73" target="6d00vNp0HRFiDjTd-FTX-64" edge="1">
          <mxGeometry width="50" height="50" relative="1" as="geometry">
            <mxPoint x="1060.43" y="1288.5" as="sourcePoint" />
            <mxPoint x="1061.43" y="1397.5" as="targetPoint" />
          </mxGeometry>
        </mxCell>
        <mxCell id="6d00vNp0HRFiDjTd-FTX-76" value="&lt;font style=&quot;font-size: 14px;&quot;&gt;0..*&lt;/font&gt;" style="text;html=1;align=center;verticalAlign=middle;resizable=0;points=[];autosize=1;strokeColor=none;fillColor=none;" parent="1" vertex="1">
          <mxGeometry x="1060.43" y="1421.5" width="40" height="30" as="geometry" />
        </mxCell>
        <mxCell id="6d00vNp0HRFiDjTd-FTX-77" value="&lt;font style=&quot;font-size: 14px;&quot;&gt;1..1&lt;/font&gt;" style="text;html=1;align=center;verticalAlign=middle;resizable=0;points=[];autosize=1;strokeColor=none;fillColor=none;" parent="1" vertex="1">
          <mxGeometry x="1054.43" y="1364" width="50" height="30" as="geometry" />
        </mxCell>
        <mxCell id="6d00vNp0HRFiDjTd-FTX-78" value="&lt;div style=&quot;&quot;&gt;&lt;span style=&quot;caret-color: rgb(0, 0, 0); font-family: sans-serif; font-size: 13.12px; font-weight: 700; background-color: rgb(255, 255, 255);&quot;&gt;&amp;lt;&amp;lt;Level&amp;gt;&amp;gt;&lt;/span&gt;&lt;span style=&quot;background-color: initial;&quot;&gt;&lt;b&gt;&lt;br&gt;&lt;/b&gt;&lt;/span&gt;&lt;/div&gt;&lt;div style=&quot;&quot;&gt;&lt;font face=&quot;sans-serif&quot;&gt;&lt;span style=&quot;font-size: 13.12px; background-color: rgb(255, 255, 255);&quot;&gt;&lt;b&gt;Barcode&lt;/b&gt;&lt;/span&gt;&lt;/font&gt;&lt;/div&gt;" style="rounded=0;whiteSpace=wrap;html=1;snapToPoint=1;points=[[0.1,0],[0.2,0],[0.3,0],[0.4,0],[0.5,0],[0.6,0],[0.7,0],[0.8,0],[0.9,0],[0,0.1],[0,0.3],[0,0.5],[0,0.7],[0,0.9],[0.1,1],[0.2,1],[0.3,1],[0.4,1],[0.5,1],[0.6,1],[0.7,1],[0.8,1],[0.9,1],[1,0.1],[1,0.3],[1,0.5],[1,0.7],[1,0.9]];fontFamily=Helvetica;fontSize=14;fillColor=none;align=center;" parent="1" vertex="1">
          <mxGeometry x="1792.15" y="1435.5" width="218.28" height="42" as="geometry" />
        </mxCell>
        <mxCell id="6d00vNp0HRFiDjTd-FTX-79" value="+ barcode : int" style="rounded=0;whiteSpace=wrap;html=1;snapToPoint=1;points=[[0.1,0],[0.2,0],[0.3,0],[0.4,0],[0.5,0],[0.6,0],[0.7,0],[0.8,0],[0.9,0],[0,0.1],[0,0.3],[0,0.5],[0,0.7],[0,0.9],[0.1,1],[0.2,1],[0.3,1],[0.4,1],[0.5,1],[0.6,1],[0.7,1],[0.8,1],[0.9,1],[1,0.1],[1,0.3],[1,0.5],[1,0.7],[1,0.9]];fontFamily=Helvetica;fontSize=14;fillColor=none;" parent="1" vertex="1">
          <mxGeometry x="1792.15" y="1477.5" width="218.28" height="48" as="geometry" />
        </mxCell>
        <mxCell id="6d00vNp0HRFiDjTd-FTX-80" value="&lt;font style=&quot;font-size: 18px;&quot;&gt;PRODUCT DIMENSION&lt;/font&gt;" style="text;html=1;align=center;verticalAlign=middle;resizable=0;points=[];autosize=1;strokeColor=none;fillColor=none;" parent="1" vertex="1">
          <mxGeometry x="1791.29" y="1210" width="220" height="40" as="geometry" />
        </mxCell>
        <mxCell id="6d00vNp0HRFiDjTd-FTX-81" value="" style="endArrow=none;html=1;rounded=0;exitX=0.5;exitY=1;exitDx=0;exitDy=0;entryX=0.5;entryY=0;entryDx=0;entryDy=0;fontStyle=1" parent="1" source="6d00vNp0HRFiDjTd-FTX-79" target="6d00vNp0HRFiDjTd-FTX-53" edge="1">
          <mxGeometry width="50" height="50" relative="1" as="geometry">
            <mxPoint x="2077.4300000000003" y="1447.5" as="sourcePoint" />
            <mxPoint x="2077.4300000000003" y="1620.5" as="targetPoint" />
          </mxGeometry>
        </mxCell>
        <mxCell id="6d00vNp0HRFiDjTd-FTX-82" value="&lt;font style=&quot;font-size: 14px;&quot;&gt;1..1&lt;/font&gt;" style="text;html=1;align=center;verticalAlign=middle;resizable=0;points=[];autosize=1;strokeColor=none;fillColor=none;" parent="1" vertex="1">
          <mxGeometry x="1893.4299999999998" y="1526.5" width="50" height="30" as="geometry" />
        </mxCell>
        <mxCell id="6d00vNp0HRFiDjTd-FTX-83" value="&lt;font style=&quot;font-size: 14px;&quot;&gt;0..*&lt;/font&gt;" style="text;html=1;align=center;verticalAlign=middle;resizable=0;points=[];autosize=1;strokeColor=none;fillColor=none;" parent="1" vertex="1">
          <mxGeometry x="1898.4300000000003" y="1595.5" width="40" height="30" as="geometry" />
        </mxCell>
        <mxCell id="6d00vNp0HRFiDjTd-FTX-84" value="&lt;div style=&quot;&quot;&gt;&lt;b&gt;&lt;span style=&quot;caret-color: rgb(0, 0, 0); font-family: sans-serif; font-size: 13.12px; background-color: rgb(255, 255, 255);&quot;&gt;&amp;lt;&amp;lt;Level&amp;gt;&amp;gt;&lt;/span&gt;&lt;span style=&quot;background-color: initial;&quot;&gt;&lt;br&gt;&lt;/span&gt;&lt;/b&gt;&lt;/div&gt;&lt;div style=&quot;&quot;&gt;&lt;b&gt;NutriScorePresence&lt;/b&gt;&lt;br&gt;&lt;/div&gt;" style="rounded=0;whiteSpace=wrap;html=1;snapToPoint=1;points=[[0.1,0],[0.2,0],[0.3,0],[0.4,0],[0.5,0],[0.6,0],[0.7,0],[0.8,0],[0.9,0],[0,0.1],[0,0.3],[0,0.5],[0,0.7],[0,0.9],[0.1,1],[0.2,1],[0.3,1],[0.4,1],[0.5,1],[0.6,1],[0.7,1],[0.8,1],[0.9,1],[1,0.1],[1,0.3],[1,0.5],[1,0.7],[1,0.9]];fontFamily=Helvetica;fontSize=14;fillColor=none;align=center;" parent="1" vertex="1">
          <mxGeometry x="1766.29" y="1255" width="270" height="42" as="geometry" />
        </mxCell>
        <mxCell id="6d00vNp0HRFiDjTd-FTX-85" value="+&amp;nbsp;nutriscore_presence : java.lang.String" style="rounded=0;whiteSpace=wrap;html=1;snapToPoint=1;points=[[0.1,0],[0.2,0],[0.3,0],[0.4,0],[0.5,0],[0.6,0],[0.7,0],[0.8,0],[0.9,0],[0,0.1],[0,0.3],[0,0.5],[0,0.7],[0,0.9],[0.1,1],[0.2,1],[0.3,1],[0.4,1],[0.5,1],[0.6,1],[0.7,1],[0.8,1],[0.9,1],[1,0.1],[1,0.3],[1,0.5],[1,0.7],[1,0.9]];fontFamily=Helvetica;fontSize=14;fillColor=none;" parent="1" vertex="1">
          <mxGeometry x="1766.29" y="1297" width="270" height="48" as="geometry" />
        </mxCell>
        <mxCell id="6d00vNp0HRFiDjTd-FTX-86" value="" style="endArrow=none;html=1;rounded=0;entryX=0.5;entryY=0;entryDx=0;entryDy=0;fontStyle=1;exitX=0.5;exitY=1;exitDx=0;exitDy=0;" parent="1" source="6d00vNp0HRFiDjTd-FTX-85" target="6d00vNp0HRFiDjTd-FTX-78" edge="1">
          <mxGeometry width="50" height="50" relative="1" as="geometry">
            <mxPoint x="1883.4300000000003" y="1331" as="sourcePoint" />
            <mxPoint x="1705.15" y="1434.75" as="targetPoint" />
          </mxGeometry>
        </mxCell>
        <mxCell id="6d00vNp0HRFiDjTd-FTX-87" value="&lt;font style=&quot;font-size: 14px;&quot;&gt;1..1&lt;/font&gt;" style="text;html=1;align=center;verticalAlign=middle;resizable=0;points=[];autosize=1;strokeColor=none;fillColor=none;" parent="1" vertex="1">
          <mxGeometry x="1894.4300000000003" y="1342" width="50" height="30" as="geometry" />
        </mxCell>
        <mxCell id="6d00vNp0HRFiDjTd-FTX-88" value="&lt;font style=&quot;font-size: 14px;&quot;&gt;0..*&lt;/font&gt;" style="text;html=1;align=center;verticalAlign=middle;resizable=0;points=[];autosize=1;strokeColor=none;fillColor=none;" parent="1" vertex="1">
          <mxGeometry x="1898.4300000000003" y="1406.5" width="40" height="30" as="geometry" />
        </mxCell>
      </root>
    </mxGraphModel>
  </diagram>
</mxfile>
